<svg xmlns="http://www.w3.org/2000/svg" width="46" height="46" viewBox="0 0 45.5 45.5"><path d="M32 18.8h-5.3V13.6c0-2.2-1.8-4-4-4 -2.2 0-4 1.8-4 4v5.2H13.6c-2.2 0-4 1.8-4 4 0 2.2 1.8 4 4 4h5.2v5.2c0 2.2 1.8 4 4 4 2.2 0 4-1.8 4-4v-5.2h5.3c2.2 0 4-1.8 4-4C35.9 20.6 34.2 18.8 32 18.8z"/><path d="M22.8 0C10.2 0 0 10.2 0 22.8 0 35.4 10.2 45.5 22.8 45.5c12.6 0 22.8-10.2 22.8-22.8C45.5 10.2 35.4 0 22.8 0zM22.8 39.6c-9.3 0-16.8-7.5-16.8-16.8 0-9.3 7.6-16.8 16.8-16.8 9.3 0 16.8 7.6 16.8 16.8C39.6 32.1 32.1 39.6 22.8 39.6z"/></svg>
